# xmcd CD database file
#
# Track frame offsets:
#	182
#	19335
#	36905
#	45322
#	57630
#	71222
#	84537
#	100165
#	116055
#	130827
#	145555
#	159867
#	173667
#	188377
#	203112
#	218057
#	232092
#	245835
#	260727
#	273390
#	286537
#	299795
#
# Disc length: 4146 seconds
#
# Revision: 0
# Processed by: cddbd v1.4PL0 Copyright (c) Steve Scherf et al.
# Submitted via: CDex 1.50beta9
#
DISCID=4b103016
DTITLE=Billie Holiday - 1944
DYEAR=1900
DGENRE=Jazz
TTITLE0=I Love My Man
TTITLE1=Do Nothin'Till You Hear From Me
TTITLE2=I'll Get By
TTITLE3=How Am I To Know ?
TTITLE4=My Old Flame
TTITLE5=I'll Get By
TTITLE6=I Cover The Waterfront
TTITLE7=I'll Be Seeing You
TTITLE8=I'm Yours
TTITLE9=Embraceable You
TTITLE10=As Time Goes By
TTITLE11=He's Funny That Way (sextet version)
TTITLE12=He's Funny That Way (trio version)
TTITLE13=Lover Come Back To Me (sextet version)
TTITLE14=Lover Come Back To Me (trio version)
TTITLE15=I Love My Man
TTITLE16=On The Sunny Side Of The Street
TTITLE17=Lover Man (Oh, Where Can You Be ?)
TTITLE18=No More
TTITLE19=That Ole Devil Called Love
TTITLE20=Don't Explain
TTITLE21=Big Stuff
EXTD=
EXTT0=
EXTT1=
EXTT2=
EXTT3=
EXTT4=
EXTT5=
EXTT6=
EXTT7=
EXTT8=
EXTT9=
EXTT10=
EXTT11=
EXTT12=
EXTT13=
EXTT14=
EXTT15=
EXTT16=
EXTT17=
EXTT18=
EXTT19=
EXTT20=
EXTT21=
PLAYORDER=
